<?xml version="1.0" encoding="UTF-8"?>
<svg id="Layer_1" data-name="Layer 1" xmlns="http://www.w3.org/2000/svg" version="1.1" xmlns:xlink="http://www.w3.org/1999/xlink" xmlns:xodm="http://www.corel.com/coreldraw/odm/2003" viewBox="0 0 3000 1840">
  <defs>
    <style>
      .cls-1 {
        fill: url(#linear-gradient-8);
      }

      .cls-1, .cls-2, .cls-3, .cls-4, .cls-5, .cls-6, .cls-7, .cls-8, .cls-9, .cls-10, .cls-11, .cls-12, .cls-13, .cls-14, .cls-15, .cls-16, .cls-17, .cls-18, .cls-19, .cls-20, .cls-21, .cls-22, .cls-23, .cls-24 {
        stroke-width: 0px;
      }

      .cls-1, .cls-2, .cls-3, .cls-5, .cls-6, .cls-7, .cls-8, .cls-9, .cls-10, .cls-12, .cls-13, .cls-14, .cls-15, .cls-16, .cls-18, .cls-19, .cls-20, .cls-21, .cls-22, .cls-23, .cls-24 {
        fill-rule: evenodd;
      }

      .cls-2 {
        fill: url(#linear-gradient-11);
      }

      .cls-3 {
        fill: url(#linear-gradient-7);
      }

      .cls-4 {
        fill: url(#linear-gradient-19);
      }

      .cls-5 {
        fill: url(#linear-gradient-16);
      }

      .cls-6 {
        fill: url(#linear-gradient-9);
      }

      .cls-7 {
        fill: url(#linear-gradient-18);
      }

      .cls-8 {
        fill: url(#linear-gradient-3);
      }

      .cls-9 {
        fill: url(#linear-gradient-23);
      }

      .cls-10 {
        fill: url(#linear-gradient-17);
      }

      .cls-11 {
        fill: url(#linear-gradient-20);
      }

      .cls-12 {
        fill: url(#linear-gradient);
      }

      .cls-13 {
        fill: url(#linear-gradient-13);
      }

      .cls-14 {
        fill: url(#linear-gradient-2);
      }

      .cls-15 {
        fill: url(#linear-gradient-15);
      }

      .cls-16 {
        fill: url(#linear-gradient-5);
      }

      .cls-17 {
        fill: #fdfefe;
      }

      .cls-18 {
        fill: url(#linear-gradient-22);
      }

      .cls-19 {
        fill: url(#linear-gradient-12);
      }

      .cls-20 {
        fill: url(#linear-gradient-14);
      }

      .cls-21 {
        fill: url(#linear-gradient-6);
      }

      .cls-22 {
        fill: url(#linear-gradient-4);
      }

      .cls-23 {
        fill: url(#linear-gradient-21);
      }

      .cls-24 {
        fill: url(#linear-gradient-10);
      }
    </style>
    <linearGradient id="linear-gradient" x1="22725.3" y1="-59426.1" x2="22689.2" y2="-57820.3" gradientTransform="translate(.6 -510) scale(0 0)" gradientUnits="userSpaceOnUse">
      <stop offset="0" stop-color="#0560b1"/>
      <stop offset="1" stop-color="#0cb8e9"/>
    </linearGradient>
    <linearGradient id="linear-gradient-2" x1="34708.6" y1="-58393.4" x2="33302.3" y2="-52892.8" gradientTransform="translate(.6 -510) scale(0 0)" gradientUnits="userSpaceOnUse">
      <stop offset="0" stop-color="#0560b1"/>
      <stop offset="1" stop-color="#0cb8e9"/>
    </linearGradient>
    <linearGradient id="linear-gradient-3" x1="31519.6" y1="-55617.3" x2="32168.1" y2="-57328.2" gradientTransform="translate(.6 -510) scale(0 0)" gradientUnits="userSpaceOnUse">
      <stop offset="0" stop-color="#fff"/>
      <stop offset="1" stop-color="#828282"/>
    </linearGradient>
    <linearGradient id="linear-gradient-4" x1="37678.9" y1="-59272.2" x2="39292.7" y2="-62935.1" gradientTransform="translate(.6 -510) scale(0 0)" gradientUnits="userSpaceOnUse">
      <stop offset="0" stop-color="#fff"/>
      <stop offset="1" stop-color="#828282"/>
    </linearGradient>
    <linearGradient id="linear-gradient-5" x1="15707.7" y1="-56667.5" x2="14879.4" y2="-53812.2" gradientTransform="translate(.6 -510) scale(0 0)" gradientUnits="userSpaceOnUse">
      <stop offset="0" stop-color="#0560b1"/>
      <stop offset="1" stop-color="#0cb8e9"/>
    </linearGradient>
    <linearGradient id="linear-gradient-6" x1="25059" y1="-59870.1" x2="25216.9" y2="-63500.2" gradientTransform="translate(.6 -510) scale(0 0)" gradientUnits="userSpaceOnUse">
      <stop offset="0" stop-color="#fff"/>
      <stop offset="1" stop-color="#828282"/>
    </linearGradient>
    <linearGradient id="linear-gradient-7" x1="45131.5" y1="-61693.6" x2="45102" y2="-63847.8" gradientTransform="translate(.6 -510) scale(0 0)" gradientUnits="userSpaceOnUse">
      <stop offset="0" stop-color="#fff"/>
      <stop offset="1" stop-color="#828282"/>
    </linearGradient>
    <linearGradient id="linear-gradient-8" x1="27496.4" y1="-48421.5" x2="27398.6" y2="-46591.4" gradientTransform="translate(.6 -510) scale(0 0)" gradientUnits="userSpaceOnUse">
      <stop offset="0" stop-color="#0560b1"/>
      <stop offset="1" stop-color="#0cb8e9"/>
    </linearGradient>
    <linearGradient id="linear-gradient-9" x1="31474.6" y1="-43592.3" x2="31556.4" y2="-37905.5" gradientTransform="translate(.6 -510) scale(0 0)" gradientUnits="userSpaceOnUse">
      <stop offset="0" stop-color="#0560b1"/>
      <stop offset="1" stop-color="#0cb8e9"/>
    </linearGradient>
    <linearGradient id="linear-gradient-10" x1="34065.4" y1="-40904.3" x2="34020.4" y2="-36875" gradientTransform="translate(.6 -510) scale(0 0)" gradientUnits="userSpaceOnUse">
      <stop offset="0" stop-color="#fff"/>
      <stop offset="1" stop-color="#828282"/>
    </linearGradient>
    <linearGradient id="linear-gradient-11" x1="45717.7" y1="-60021.3" x2="45146.1" y2="-54955" gradientTransform="translate(.6 -510) scale(0 0)" gradientUnits="userSpaceOnUse">
      <stop offset="0" stop-color="#0560b1"/>
      <stop offset="1" stop-color="#0cb8e9"/>
    </linearGradient>
    <linearGradient id="linear-gradient-12" x1="38350.4" y1="-35925.8" x2="38181.4" y2="-33122.6" gradientTransform="translate(.6 -510) scale(0 0)" gradientUnits="userSpaceOnUse">
      <stop offset="0" stop-color="#0560b1"/>
      <stop offset="1" stop-color="#0cb8e9"/>
    </linearGradient>
    <linearGradient id="linear-gradient-13" x1="22882.8" y1="-49643.3" x2="22694.5" y2="-58488.4" gradientTransform="translate(.6 -510) scale(0 0)" gradientUnits="userSpaceOnUse">
      <stop offset="0" stop-color="#fff"/>
      <stop offset="1" stop-color="#828282"/>
    </linearGradient>
    <linearGradient id="linear-gradient-14" x1="41124.8" y1="-48407.6" x2="40921.9" y2="-46006.1" gradientTransform="translate(.6 -510) scale(0 0)" gradientUnits="userSpaceOnUse">
      <stop offset="0" stop-color="#fff"/>
      <stop offset="1" stop-color="#828282"/>
    </linearGradient>
    <linearGradient id="linear-gradient-15" x1="43499.2" y1="-44088.8" x2="40871.4" y2="-49508.5" gradientTransform="translate(.6 -510) scale(0 0)" gradientUnits="userSpaceOnUse">
      <stop offset="0" stop-color="#fff"/>
      <stop offset="1" stop-color="#828282"/>
    </linearGradient>
    <linearGradient id="linear-gradient-16" x1="69509.1" y1="-38630.6" x2="63285.6" y2="-26860.4" gradientTransform="translate(.6 -510) scale(0 0)" gradientUnits="userSpaceOnUse">
      <stop offset="0" stop-color="#0560b1"/>
      <stop offset="1" stop-color="#0cb8e9"/>
    </linearGradient>
    <linearGradient id="linear-gradient-17" x1="15843.8" y1="-56144.7" x2="15565.4" y2="-56581" gradientTransform="translate(.6 -510) scale(0 0)" gradientUnits="userSpaceOnUse">
      <stop offset="0" stop-color="#fff"/>
      <stop offset="1" stop-color="#828282"/>
    </linearGradient>
    <linearGradient id="linear-gradient-18" x1="39406.1" y1="-49896.1" x2="44193.6" y2="-45211.7" gradientTransform="translate(.6 -510) scale(0 0)" gradientUnits="userSpaceOnUse">
      <stop offset="0" stop-color="#0560b1"/>
      <stop offset="1" stop-color="#0cb8e9"/>
    </linearGradient>
    <linearGradient id="linear-gradient-19" x1="1937.5" y1="896.5" x2="1937.5" y2="782.2" gradientUnits="userSpaceOnUse">
      <stop offset=".8" stop-color="#fcfcfc"/>
      <stop offset="1" stop-color="#ababab"/>
    </linearGradient>
    <linearGradient id="linear-gradient-20" x1="1937.5" y1="896.5" x2="1937.5" y2="839.4" gradientUnits="userSpaceOnUse">
      <stop offset="0" stop-color="#fcfcfc"/>
      <stop offset="1" stop-color="#ababab"/>
    </linearGradient>
    <linearGradient id="linear-gradient-21" x1="68183.9" y1="-54190.2" x2="68177.6" y2="-52151.3" xlink:href="#linear-gradient"/>
    <linearGradient id="linear-gradient-22" x1="84127.7" y1="-56010.5" x2="84119.7" y2="-53971.5" xlink:href="#linear-gradient"/>
    <linearGradient id="linear-gradient-23" x1="67203.5" y1="-55450.4" x2="67173.1" y2="-53472.6" xlink:href="#linear-gradient"/>
  </defs>
  <path class="cls-12" d="M803,1145.9c-.6,3.2-1.2,6.4-1.6,9.6l-165.2,23.2-147.2-22.1c-2.1-2.3-3.5-4.6-4.4-7.4-.6-1.8-1-3.9-1.2-6.4,2.8,1.8,6.8,3.1,12.5,4.1l115.1,21c16.7,3.1,22.4,2.5,38,.5,11.4-1.4,27.9-3.6,45.1-6,35-4.8,73.4-10.3,79.5-11.6,18.4-3.7,21.8-3.6,29.4-5.1h0Z"/>
  <path class="cls-14" d="M811.7,1154.1c10.8-67.1,52.7-131.9,115.2-161.4,54-25.5,137.2-25.3,180.2,21.7,51,55.9,50.7,172,50.3,245.8l-5.6.6c0-47.3-2.3-130.4-18.6-180.4-18.4-56.5-59.7-52.8-84.1-2-10.7,22.2-17.9,48.6-21.8,67.1l-214,8.3-1.5.2h0ZM981,1104.1c3.1-7.6,6.2-16.1,8.4-23.3h0c2.9-9.3,1-15-4.1-18.3-4.3-2.7-10.5-3-17.6-2-10.6,1.5-28.1,4-46.2,7.3-12.3,2.2-24.9,4.8-35.8,7.6-8.8,2.3-15.7,4.3-21.4,6.9-6,2.7-10.9,5.8-15.3,10.2-3.5,3.4-7.6,9.2-11.4,15.3-6,9.7-11.6,20.5-12.4,22.9-.4,1.1-.7,2.3-.8,3.3-.2,2.1.3,4.1,1.4,5.9,1.1,1.7,2.7,3.1,5,4,1.2.5,2.5.8,4,.9,3.1.3,25.2-1.1,48.7-3,20.7-1.6,42.6-3.5,53.6-4.9,12.2-1.5,19.3-3,24.4-5.4,5.6-2.6,8.4-6,11.5-11,2.4-3.9,5.2-9.8,7.9-16.4h0Z"/>
  <path class="cls-8" d="M979.8,1077.8l-.4,1.4c-31.4,4.2-62.9,8-93.7,15.9-8.2,2.1-14.6,4-19.9,6.4-4.9,2.2-8.8,4.7-12.4,8.2-3,2.9-13.3,16.2-18.9,24.7h0c.8-2.1,5.8-12,11.6-21.2,3.4-5.5,7-10.7,9.8-13.4,3.5-3.4,7.4-6,12.4-8.2,5.3-2.3,11.7-4.3,19.9-6.4,10.6-2.7,22.9-5.2,35.1-7.4,17.7-3.2,35.1-5.8,45.7-7.2,4.9-.7,8.9-.7,10.8.5,1.1.7,1.3,2.7,0,6.8h0Z"/>
  <path class="cls-22" d="M1053.6,1246.3c4.2,45.3,19.1,78.8,36.8,78.8s38-46.8,38-104.4-7.3-71.1-18.3-89.4c5.7,17.3,9.2,40.2,9.2,65.4,0,53.6-15.8,97.1-35.3,97.1s-24.2-19.1-30.4-47.5h0Z"/>
  <path class="cls-16" d="M405.8,1131.7c.6.6,1.3,1.1,2,1.6,3.7,2.3,11.3,4.3,18.9,5.7,7.1,1.4,14.4,2.4,17.6,2.8,8.7,1.2,14.2,1.4,18.3-1,4.6-2.8,6.1-7.7,5.8-16.5-.2-7.4-1.1-18-3.5-27.1-1.8-7.1-4.6-13.4-8.6-17-7.9-7.1-24-15.4-32-19.3,11-20.7,27.3-39.1,49.7-54.7l-.2,22.2c-.4,38.1-.8,72.8-.9,105.8,0,7.7.5,13.3,2,17.9.3.9.6,1.7.9,2.5l-70.4-10.6c0-4.2,0-8.3.3-12.4h0Z"/>
  <path class="cls-21" d="M1016.2,1292.4c2.1,10.7,4.3,19.9,6.6,29.1-25.4,3.3-43.6,2.9-64,2.5h-.1c-3.9,0-21.8-.4-48.9-.9-117.8-2.2-408.4-7.5-465.9-9.7-6.9-.3-10.9-5.3-13.4-11.8h0c-1.8-4.7-2.8-10.1-3.4-15.2,1.2.5,1.9.8,1.9.8l.9.4h9.7c0,.1,1.7,8.3,1.7,8.3.9,4.3,2,5.8,6.4,6,31.3,1.1,62.6,1.7,93.9,2.4,51.7,1.1,103.5,2.2,155.2,3.2,71,1.4,142.1,2.7,213.1,4,16.3.3,32.6.6,49,.9h.1c17,.4,32.8.4,49.3-1-.3-1.2-2.4-10.3-3.9-17.1,4.1-.4,8.1-1,11.7-1.9h0ZM757.2,1215.4c-.3,4.3-.6,10.9-.1,13.3.8,4.3,3.6,5.5,7.3,5.5,3,0,8,0,11-.2,4.6-.3,5.3-4.4,5.5-8.7.1-1.9.2-5.2.2-7.8,0-5.2-1.9-7-6.9-7-3.3,0-10.7.1-12.6.1s-4.1,2.3-4.3,4.7h0ZM515.3,1212.5c0,4.1.1,10.3-.4,12.6-1.1,5-4.5,5.3-8.5,5.3-2.5,0-5.8,0-8.2-.2-5-.3-5.6-3.1-5.6-8.3,0-1.8,0-5.1.1-7.6.1-3.4,1.3-6.2,5.4-6.4,1.2,0,11.1.1,13.3.1s3.8,2.1,3.9,4.4h0ZM701.2,1232.3c-8.5,0-37.5-.3-67.5-.5-29.8-.2-60-.4-70.6-.4-9.2,0-14.3,3.9-13.9,13.5,0,2.2.3,4.7,1,7.2,2.6,10.5,9.6,14.3,19.4,14.5,17.4.3,127.3,2,131.7,1.5,2.7-.3,6.3-.8,9.5-2.9,6.6-4.4,6.6-12.3,6.6-19.4,0-9.8-2.1-13.3-16.2-13.5h0ZM475.5,1278.4l-43.3-.5c-4.4-1.9-23.6-10.6-28.2-16.8-2.9-3.8-2.7-7.6-2.6-11.1.1-2.8.2-5.4-.6-8.4-1-3.7-2.6-10.8-3.9-19-.9-5.5-1.7-11.5-2-17.3-.4-6.3,0-14.4.7-21.7.8-8.7,1.9-16,2.6-17.1h0c.3-.6,4.9-2,8.9-3.2l64.8,9.7c-1.6,18.4-4.1,62.7,3.6,105.5h0ZM800.5,1282.5l-318.2-4c-7.8-42.1-5.3-86.1-3.8-104.6l157.5,23.6,169.5-23.7c-2.7,22.1-8.3,75.2-5.1,108.8h0ZM814.1,1172.5l206.5-8c1.4.4,5,1.7,4.2,4.9-3.1,13.4-7.2,35.2-9.2,55.7-1.2,12.2-1.7,23.9-.8,33.3,1.4,15.1-8.5,26.7-24.1,26.5l-183.5-2.3c-3.4-33.8,2.7-89,5.3-109.8l1.7-.2h0ZM451.2,1228.2c-7.7-2.1-7.5-10.3-7.6-16.7-.2-13.6,1.1-22.2-13.4-26.6-4.9-1.5-10.2-2.1-14.3-2.3-6.1-.3-12.2,0-13.8,7-1.5,6.5-1.3,18.3-.5,24.9,1.5,11.6,6.9,15.6,18.5,16.6,13.4,1.2,34.8,1.7,45.6,2.1l-14.6-5.1h0ZM814.5,1241.1h90.4c7.8,0,13.2-4.6,16.9-10.9,5.2-8.8,6.8-21.2,7-27.4.4-12.5-8-17-19.4-16.8-8.6.2-26.1.6-36.9,2.4-12.3,2.1-17.3,7.8-20.4,19.5-2.2,8.4-2.9,16.5-3.9,25.2l-33.7,7.9h0Z"/>
  <path class="cls-3" d="M1143.6,1293.9h7.6c.1-4,.3-12.1.4-23l12.4-1.3c-.1,6.9-.4,21.2-.5,24.6v2.1c0,0,235-32.5,235-32.5l.4-19.6,12.1-1.3-.2,31.7-259.5,35.9-7.7-16.5h0Z"/>
  <path class="cls-1" d="M519.5,897.5c36.2-27.7,79.4-55.4,119.6-77,6-3.2,14.2-5.6,39-7.5,106.5-8,311.1-4.1,359.2-2.1-46.1,14.2-200.7,62.7-223.7,86.1-89.9-15.7-204-14.4-294.1.5h0Z"/>
  <path class="cls-6" d="M1122,602.8c3.2,1.1,4.2,3.7,3.2,6.9l-6.7,16.9c-.5,1.4-1.9,2.4-4.9,3.1-8.1,2.1-23,.5-32.6.1-121.2-4.7-242.6-2.2-363.6,5.6-30.6,2-49.2,88.1-59.3,135.4,2.8-23.7,10.4-80.1,22.7-117.5,9.7-29.5,21.1-43.3,44.6-45.9,98.9-10.7,251.7-12.6,359.2-9.3,15.2.5,22.1.1,37.2,4.8h0ZM858.9,639.6c-9.3,39-21.2,94.7-31.6,160.5,3.4,0,6.8-.2,10.2-.2,10.5-66.3,22.6-122,31.8-160.6-3.5,0-6.9.2-10.4.3h0Z"/>
  <path class="cls-24" d="M1202.9,663.9c-12.8-3.1-43.1-10.1-60.1-11.8-26.4-2.6-31.4,21.7-35.8,42.4-4.9,22.9-9,47.3-12.3,71.1-1.4,10.2-3.8,30.8-16.1,34,7.1-30.4,13.1-68.1,18.2-97.2,3.8-21.3,6.8-39.8,7.3-46.3.4-5.3-.8-11.7-4.5-15.6,7.1.1,12.3-.3,16.1-1.2,6.8-1.6,10.1-4.6,11.9-9.2l6.7-16.9c3.3-8.3-.9-17.5-9.5-20.1-16.1-4.9-23.9-4.7-39.9-5.2-115.9-3.5-231.6-5.4-347.1,6-4.2.4-8.1.8-11.8,1.2,10.9-12.3,28.2-18.1,44.2-19.6,24.7-2.3,115.3-4.9,202.8-6.5,74-1.3,145.8-2,173.9-1,28.2.9,38.8,6.7,45.4,17.2,10.6,16.9,9.8,56.8,10.5,78.6h0Z"/>
  <path class="cls-2" d="M1195.3,1111.7l-20.4-26.7,113.6,1.1-5.5,25.5h-87.7,0ZM1322.7,1146.3c2.4,4.8,7.3,15.1,8,19.5.5,3.7-1.8,20.4-6.9,21.1-1.1.2-10.3.3-12.1.3-6.7,0-6-3.1-3.6-12.3,1.4-5.4,2.4-9.7-5.6-26.6-1-2.1-1.3-4.6,1.5-4.7,1.8,0,12,0,14.6,0,2.1,0,3.1.5,4.2,2.7h0ZM1167.3,1259.2c0-5,0-10.2,0-15.5l254.5-27.5c-.1,6.6-.2,12.1-.3,15.6l-254.3,27.5h0ZM1167.3,1233.5c-.2-45.7-2.1-100.9-14.7-148.7h11.9c0,.1,33.4,43.8,33.4,43.8h224.8c0,21-.5,53.6-.8,77.4l-142.4,15.4c3.2-12.3,7.4-37.4,8.6-46.2.9-6.7-1.4-18.4-3.1-25.5-1.2-5-3.6-7.2-9.1-6.9-2.4.1-78,.8-83.3,1-5.3.2-6.3,2.5-5.6,6.8.8,4.3,3.6,12.2,3.3,32.1l-.7,48.5-22.3,2.4h0ZM1237.7,1225.9l-7.2.8c-2.1.1-4.1.2-5.4.2-3.6,0-3.6-3-2.6-5.8.7-1.9,2.8-7.9,4.2-13.6,1-3.7,1.9-4.3,5.6-4.4l9.9-.4c3.2-.1,4.1,1.8,3.2,4.6-1.7,5.6-4,11.9-5.4,15.6-.7,1.7-1.4,2.6-2.4,3.1h0Z"/>
  <path class="cls-19" d="M1355.8,547.2c-1.8-18.4-9.6-96.3-14.2-118.1-.9-4.1-2.1-7.2-3.8-9.6,15.5,0,28.4,0,38,0,15.1,0,25.4,11.5,26.2,25.1l7.2,122.5c-27-9-50.1-18.7-53.5-19.9h0ZM1074.5,557.9c4.1-102.8,164.5-137.1,245-138.3,9.5-.1,13-.5,15.4,10.9,4.3,20.5,11.6,91.7,13.8,114.3-5.9-2-12.1-4-18.3-5.8-46.3-13.5-94.2-16.5-141.3,24.9-12.6-3.6-27.6-5.2-40.9-5.7-14.6-.5-41.2-.6-73.8-.4h0ZM1091.7,423.8c-69.8,16.4-157.2,54.3-163.2,136.3-35.3.8-69.1,1.7-96.9,2.6,19.6-112,166.6-135.3,260.1-138.9h0ZM988.8,429.5c-73.2,16.5-150.4,50.8-164,133.4-25.5.9-45.2,1.8-55.1,2.7,27.1-114.1,117.9-128.2,219.1-136.2h0ZM935.2,559.9c7.2-91.9,124.5-126.9,200.6-137.6,37.5-1.1,75.1-1.8,112.6-2.2-71.7,14.8-177.3,50.3-180.6,137.8-28.7.2-61.6.7-94.9,1.3-12.6.2-25.2.5-37.7.7h0Z"/>
  <path class="cls-13" d="M513.9,908.6c43.2-7.7,93.8-11.9,144.4-12.5,52.2-.6,104.4,2.6,148.4,9.8-6,9.8-8.9,22.3-10.2,39.9l-13.3,178.6c-.7,9.5-1.6,14-11.6,16-6.3,1.2-44.3,6.7-78.9,11.5-17.1,2.3-33.4,4.5-44.6,5.9-14.7,1.8-19.7,2.5-35.4-.4l-115-20.9c-10.9-2-11-6.2-11.2-15-.6-26.9-.4-50.6,0-77.5.5-38.4,1.6-78.6,2.5-102.4.7-19.4,5.9-29.5,24.9-32.9h0ZM783.4,932.8c1-9.2-6.9-9.7-14-9.2l-38.1,2.7c-3.9.3-6.9,3.3-7.1,7.2l-10.2,198.6c-.2,4.8.8,7.4,6,6.5l30.1-5c17.3-2.9,18.7-1.8,19.7-17.5l13.5-183.3h0ZM574.1,1143.5l44.9,7.6c7.5,1.3,9.2.3,9.4-7.1l4.7-203.9c0-4-3-7.4-7-7.7l-54.3-4.3c-4.4-.3-8.1,3.1-8.2,7.5l-2.2,194.3c-.1,10.8-.3,11.6,12.7,13.7h0ZM500,937.2l.6,180c0,11.1,1.2,12.6,11.4,15.1l31.6,5.3c9.5,1.6,9.4-1.6,9.5-9.7l2.2-194.1c0-4-3-7.3-7-7.6l-35.9-2.8c-9.8,0-12.7,4.8-12.3,13.9h0ZM695.1,1142.8c7.2-1.2,10.2-2.8,10.6-10.3l10.1-196.7c.2-4.6-3.5-8.3-8.1-7.9l-59.2,4.1c-3.9.3-7,3.5-7.1,7.4l-4.7,205.9c-.1,6.4,2,7.1,7.8,6.1l50.5-8.6Z"/>
  <path class="cls-20" d="M1182.3,826.1l-37.8,48.1v-14.9l37.1-47.3c0,1.7.1,3.2.2,4.8,0,3.1.2,6.3.5,9.3h0Z"/>
  <path class="cls-15" d="M1239.6,710.2c.5,8,1.7,32.5,2.7,56.7,1,24.2,2,48,2.1,54.9,0,4.4-1.8,7.9-4.4,10.5-3.9,3.8-9.4,5.8-13.5,6.3-3.3.4-7.5.7-11.7.9-3.2,0-6.5,0-9.6-.3-12.7-1.2-13-12.1-13.4-22.8h0c0-2.1-.1-4.2-.2-5.9-.5-8.5-1.1-38.7-1.2-64.3,0-18.4.2-34.3.8-38,.5-2.5,1.9-4.2,3.6-5.5,2.9-2.1,6.6-2.9,9-2.9,1.7,0,5.4,0,9.6,0,4.1,0,8.9.2,12.5.3,4.5.1,8.3.3,10.5,1.6,1.8,1.1,2.9,3.5,3.3,8.7h0Z"/>
  <path class="cls-5" d="M2558.7,609.6l-1114.5-158.1,3.5,67.4,1111.1,90.7h0ZM1448.9,544l3.6,70.3,900.3,49.7-903.9-120h0ZM1453.8,639.3l3.6,70.3,683.1,7.4-686.8-77.6Z"/>
  <path class="cls-10" d="M413.5,1076.1c8.2,4.1,16.5,8.2,24.7,12.4,16.8,8.5,15.6,11.8,22.5,31.5-1.8-15.3-2.5-32.2-19.6-41.1-5.8-3-10.9-5.6-14.9-7.7-8.1-4.1-9.9-1.6-12.6,4.9h0Z"/>
  <path class="cls-7" d="M1140.2,1047.4c-3.4-7.8-7.3-15.1-11.6-22l50.7,1s-35-5.1-55.3-7.9c-9.6-13.5-19.2-20.6-31.9-27.9v-5.9c34.5-.9,69-1.7,103.6-2.3-34.5-2.7-70.8-5.3-103.7-7.9-.2-32.4-.5-93.4-.7-121.5v-2.3c0-15.7-.2-30.4-12-41.8,21.8-8.5,21.5-38.9,24.6-58.2,3.2-20.2,7.1-42.6,9.7-54.9,2.5-11.9,5.1-22,9.5-28.6,4-6.1,9.8-9.3,19.1-8.4,17.3,1.7,49.6,9.3,60.9,12,.2,5.9.4,12.2.6,18.6h-.3c-1.6,0-3.5.3-5.6.8v-8.8c-15.5-3.3-31.2-6.5-46.9-8.7-8.4-1.1-16.8-1.2-22.9,5.4-3.6,3.9-6.8,13.8-9.3,25.2-3.8,17.2-6.4,38.4-7,46.6,0,23.4-1.4,47.2-1.7,70.7-.1,12.2,2.7,17.1,17,16.8,5.8-.1,15.2-.4,21.8-.5l-11.7,14.9h-18.5c-1.6,0-3,.6-4,1.7-1,1-1.7,2.4-1.7,4v41.7c0,1.6.6,3,1.7,4,1,1,2.5,1.7,4,1.7h20.1c1.6,0,3-.6,4-1.7,1-1,1.7-2.4,1.7-4v-9.4l40.9-51.9c2.9,5.7,8.4,9.9,18.9,10.9,1.5.1,3.1.2,4.6.3.3,10,.7,19.5,1,28.3.4,10.5.8,20.1,1.2,28.4,1.8,40.6,1.1,71-1.5,94.9-2.2,20.2-5.8,35.5-10.3,48.2-5,0-8.9,0-11.5,0-19.2,0-36.7-.8-47.6-1.5h0ZM1197.7,990.4s-15.3-.5-18.5.1c-3.2.7-8,4.1-8.9,8.2-.9,4.1-1.3,11.5-1.3,13.8s.7,3.2,1.8,3.7c1.1.5,17.5,1.5,19.6,1.6,2.1,0,8-5.6,8.7-8.5.6-2.1,1-9.8,1.2-13.5.1-2.1-.2-4.6-2.7-5.4h0Z"/>
  <g>
    <path class="cls-17" d="M2288.1,898.3l-28-40.5h-20.7v40.5h-31.4v-70.3h85.1v-17.7h-83.6v-29.8h85.4c9.1,0,16.7,3.6,22.7,10.8,4.6,5.6,6.9,11.9,6.9,19v17.9c0,9.1-3.6,16.7-10.6,22.7-4.7,4-10,6.3-15.8,6.9l28.1,40.6h-38.2ZM2090.6,898.3v-88.1c0-9.1,3.6-16.7,10.6-22.7,5.6-4.7,11.9-7.1,19-7.1h79.6v29.8h-77.9v14.1h76.4v29.8h-76.4v44.1h-31.4ZM1926.5,898.3v-29.8h82.6v-14.2h-53c-9.2,0-16.8-3.6-22.7-10.8-4.6-5.5-6.9-11.9-6.9-18.8v-14.4c0-9.1,3.6-16.7,10.6-22.7,5.6-4.7,11.9-7.1,19-7.1h84.3v29.8h-82.6v14.1h53c9.2,0,16.8,3.6,22.7,10.8,4.6,5.5,6.9,11.9,6.9,18.8v14.7c0,9.2-3.6,16.8-10.8,22.7-5.5,4.6-11.9,6.9-18.8,6.9h-84.3ZM1804.5,898.3v-29.8h82.6v-14.2h-53c-9.2,0-16.8-3.6-22.7-10.8-4.6-5.5-6.9-11.9-6.9-18.8v-14.4c0-9.1,3.6-16.7,10.6-22.7,5.6-4.7,11.9-7.1,19-7.1h84.3v29.8h-82.6v14.1h53c9.2,0,16.8,3.6,22.7,10.8,4.6,5.5,6.9,11.9,6.9,18.8v14.7c0,9.2-3.6,16.8-10.8,22.7-5.5,4.6-11.9,6.9-18.8,6.9h-84.3ZM1643.8,898.3l-28-40.5h-20.7v40.5h-31.4v-70.3h85.1v-17.7h-83.6v-29.8h85.4c9.1,0,16.7,3.6,22.7,10.8,4.6,5.6,6.9,11.9,6.9,19v17.9c0,9.1-3.6,16.7-10.6,22.7-4.7,4-10,6.3-15.8,6.9l28.1,40.6h-38.2ZM1481,898.3v-86.2h-43v-31.5h43v-.2h31.5v.2h43.2v31.5h-43.2v86.2h-31.5ZM1316.2,898.3v-29.8h82.6v-14.2h-53c-9.2,0-16.8-3.6-22.7-10.8-4.6-5.5-6.9-11.9-6.9-18.8v-14.4c0-9.1,3.6-16.7,10.6-22.7,5.6-4.7,11.9-7.1,19-7.1h84.3v29.8h-82.6v14.1h53c9.2,0,16.8,3.6,22.7,10.8,4.6,5.5,6.9,11.9,6.9,18.8v14.7c0,9.2-3.6,16.8-10.8,22.7-5.5,4.6-11.9,6.9-18.8,6.9h-84.3ZM2477.6,898.1c-9.2,0-16.8-3.6-22.7-10.8-4.6-5.5-6.9-11.9-6.9-18.8v-58.3c0-9.1,3.6-16.7,10.6-22.7,5.6-4.7,11.9-7.1,19-7.1h79.6v29.8h-77.9v14.1h76.4v29.8h-76.4v14.1h79.4v29.8h-81.1ZM2359.7,898.1c-9.2,0-16.8-3.6-22.7-10.8-4.6-5.5-6.9-11.9-6.9-18.8v-58.3c0-9.1,3.6-16.7,10.6-22.7,5.6-4.7,11.9-7.1,19-7.1h79.6v29.8h-77.9v14.1h76.4v29.8h-76.4v14.1h79.4v29.8h-81.1ZM1715.5,898.1c-9.2,0-16.8-3.6-22.7-10.8-4.6-5.5-6.9-11.9-6.9-18.8v-58.3c0-9.1,3.6-16.7,10.6-22.7,5.6-4.7,11.9-7.1,19-7.1h79.6v29.8h-77.9v14.1h76.4v29.8h-76.4v14.1h79.4v29.8h-81.1Z"/>
    <path class="cls-4" d="M1400.5,852.5h-54.7c-8.7,0-15.8-3.4-21.4-10.2-4.3-5.3-6.5-11.2-6.5-17.7v-14.4c0-8.6,3.3-15.7,10-21.4,5.3-4.4,11.2-6.7,17.9-6.7h82.6v26.4h-82.6v17.6h54.7c8.7,0,15.8,3.4,21.4,10.2,4.3,5.3,6.5,11.2,6.5,17.7v14.7c0,8.7-3.4,15.8-10.2,21.4-5.3,4.3-11.2,6.5-17.7,6.5h-82.6v-26.4h82.6v-17.7ZM1482.8,810.3h-43v-28h43v-.2h28v.2h43.2v28h-43.2v86.2h-28v-86.2ZM1567,808.5v-26.4h83.6c8.6,0,15.7,3.4,21.4,10.2,4.3,5.3,6.5,11.2,6.5,17.9v17.9c0,8.6-3.3,15.7-10,21.4-5.3,4.4-11.2,6.7-17.9,6.7l28,40.5h-33.9l-28-40.5h-23.3v40.5h-27.9v-66.8h85.1v-21.2h-83.6ZM1794.9,896.4h-79.4c-8.7,0-15.8-3.4-21.4-10.2-4.3-5.3-6.5-11.2-6.5-17.7v-58.3c0-8.6,3.3-15.7,10-21.4,5.3-4.4,11.2-6.7,17.9-6.7h77.9v26.4h-77.9v17.6h76.4v26.4h-76.4v17.6h79.4v26.4ZM1888.8,852.5h-54.7c-8.7,0-15.8-3.4-21.4-10.2-4.3-5.3-6.5-11.2-6.5-17.7v-14.4c0-8.6,3.3-15.7,10-21.4,5.3-4.4,11.2-6.7,17.9-6.7h82.6v26.4h-82.6v17.6h54.7c8.7,0,15.8,3.4,21.4,10.2,4.3,5.3,6.5,11.2,6.5,17.7v14.7c0,8.7-3.4,15.8-10.2,21.4-5.3,4.3-11.2,6.5-17.7,6.5h-82.6v-26.4h82.6v-17.7ZM2010.8,852.5h-54.7c-8.7,0-15.8-3.4-21.4-10.2-4.3-5.3-6.5-11.2-6.5-17.7v-14.4c0-8.6,3.3-15.7,10-21.4,5.3-4.4,11.2-6.7,17.9-6.7h82.6v26.4h-82.6v17.6h54.7c8.7,0,15.8,3.4,21.4,10.2,4.3,5.3,6.5,11.2,6.5,17.7v14.7c0,8.7-3.4,15.8-10.2,21.4-5.3,4.3-11.2,6.5-17.7,6.5h-82.6v-26.4h82.6v-17.7ZM2092.3,896.5v-86.4c0-8.6,3.3-15.7,10-21.4,5.3-4.4,11.2-6.7,17.9-6.7h77.9v26.4h-77.9v17.6h76.4v26.4h-76.4v44.1h-27.9ZM2211.2,808.5v-26.4h83.6c8.6,0,15.7,3.4,21.4,10.2,4.3,5.3,6.5,11.2,6.5,17.9v17.9c0,8.6-3.3,15.7-10,21.4-5.3,4.4-11.2,6.7-17.9,6.7l28,40.5h-33.9l-28-40.5h-23.3v40.5h-27.9v-66.8h85.1v-21.2h-83.6ZM2439.1,896.4h-79.4c-8.7,0-15.8-3.4-21.4-10.2-4.3-5.3-6.5-11.2-6.5-17.7v-58.3c0-8.6,3.3-15.7,10-21.4,5.3-4.4,11.2-6.7,17.9-6.7h77.9v26.4h-77.9v17.6h76.4v26.4h-76.4v17.6h79.4v26.4ZM2557,896.4h-79.4c-8.7,0-15.8-3.4-21.4-10.2-4.3-5.3-6.5-11.2-6.5-17.7v-58.3c0-8.6,3.3-15.7,10-21.4,5.3-4.4,11.2-6.7,17.9-6.7h77.9v26.4h-77.9v17.6h76.4v26.4h-76.4v17.6h79.4v26.4Z"/>
    <path class="cls-17" d="M2288.1,898.3l-28-40.5h-20.7v40.5h-31.4v-60.7h115.2l-1.1,2.4c-1.8,4-4.5,7.6-8.2,10.7-4.7,4-10,6.3-15.8,6.9l28.1,40.6h-38.2ZM2090.6,898.3v-60.7h107.7v16.6h-76.4v44.1h-31.4ZM1926.5,898.3v-29.8h82.6v-14.2h-52.9c-9.2,0-16.8-3.6-22.7-10.8-.8-1-1.6-2.1-2.3-3.1l-1.7-2.7h106l.5.8c3,4.7,4.5,9.9,4.5,15.6v14.7c0,9.2-3.6,16.8-10.8,22.7-5.5,4.6-11.9,6.9-18.8,6.9h-84.3ZM1804.5,898.3v-29.8h82.6v-14.2h-53c-9.2,0-16.8-3.6-22.7-10.8-.8-1-1.6-2.1-2.3-3.1l-1.7-2.7h106l.5.8c3,4.7,4.5,9.9,4.5,15.6v14.7c0,9.2-3.6,16.8-10.8,22.7-5.5,4.6-11.9,6.9-18.8,6.9h-84.3ZM1643.8,898.3l-28-40.5h-20.7v40.5h-31.4v-60.7h115.2l-1.1,2.4c-1.8,4-4.5,7.6-8.2,10.7-4.7,4-10,6.3-15.8,6.9l28.1,40.6h-38.2ZM1481,898.3v-60.7h31.5v60.7h-31.5ZM1316.2,898.3v-29.8h82.6v-14.2h-53c-9.2,0-16.8-3.6-22.7-10.8-.8-1-1.6-2.1-2.3-3.1l-1.7-2.7h106l.5.8c3,4.7,4.5,9.9,4.5,15.6v14.7c0,9.2-3.6,16.8-10.8,22.7-5.5,4.6-11.9,6.9-18.8,6.9h-84.3ZM2477.6,898.1c-9.2,0-16.8-3.6-22.7-10.8-4.6-5.5-6.9-11.9-6.9-18.8v-30.9h107.7v16.6h-76.4v14.1h79.4v29.8h-81.1ZM2359.7,898.1c-9.2,0-16.8-3.6-22.7-10.8-4.6-5.5-6.9-11.9-6.9-18.8v-30.9h107.7v16.6h-76.4v14.1h79.4v29.8h-81.1ZM1715.5,898.1c-9.2,0-16.8-3.6-22.7-10.8-4.6-5.5-6.9-11.9-6.9-18.8v-30.9h107.7v16.6h-76.4v14.1h79.4v29.8h-81.1Z"/>
    <path class="cls-11" d="M2477.6,870v-17.6h76.4v-13.1h-104.2v29.2c0,6.6,2.2,12.5,6.5,17.7,5.5,6.8,12.7,10.2,21.4,10.2h79.4v-26.4h-79.4ZM2359.7,870v-17.6h76.4v-13.1h-104.2v29.2c0,6.6,2.2,12.5,6.5,17.7,5.6,6.8,12.7,10.2,21.4,10.2h79.4v-26.4h-79.4ZM2294.9,856.1c6.7,0,12.6-2.2,17.9-6.7,3.5-3,6.1-6.3,7.7-10.1h-110.8v57.2h27.9v-40.5h23.3l28,40.5h33.9l-28-40.5ZM2092.3,839.4v57.2h27.9v-44.1h76.4v-13.1h-104.2ZM2034.4,839.4h-101.8c.6,1,1.4,2,2.2,3,5.6,6.8,12.7,10.1,21.4,10.1h54.7v17.7h-82.6v26.4h82.6c6.6,0,12.5-2.2,17.7-6.5,6.8-5.6,10.2-12.7,10.2-21.4v-14.7c0-5.3-1.4-10.2-4.3-14.6ZM1912.5,839.4h-101.8c.6,1,1.4,2,2.2,3,5.6,6.8,12.7,10.1,21.4,10.1h54.7v17.7h-82.6v26.4h82.6c6.6,0,12.5-2.2,17.7-6.5,6.8-5.6,10.2-12.7,10.2-21.4v-14.7c0-5.3-1.4-10.2-4.3-14.6ZM1715.5,870v-17.6h76.4v-13.1h-104.2v29.2c0,6.6,2.2,12.5,6.5,17.7,5.6,6.8,12.7,10.2,21.4,10.2h79.4v-26.4h-79.4ZM1650.7,856.1c6.7,0,12.6-2.2,17.9-6.7,3.5-3,6.1-6.3,7.7-10.1h-110.8v57.2h27.9v-40.5h23.3l28,40.5h33.9l-28-40.5ZM1482.8,839.4v57.2h28v-57.2h-28ZM1424.1,839.4h-101.8c.7,1,1.4,2,2.2,3,5.5,6.8,12.7,10.1,21.4,10.1h54.7v17.7h-82.6v26.4h82.6c6.6,0,12.5-2.2,17.7-6.5,6.8-5.6,10.2-12.7,10.2-21.4v-14.7c0-5.3-1.4-10.2-4.3-14.6Z"/>
  </g>
  <g>
    <path class="cls-23" d="M1301.6,1080.1h88.2l20.4-36.3h-56.5l23.9-111.4h-44.3l-31.7,147.7h0ZM2138.5,932.4c-15,0-28.1,10.8-31.3,25.7l-20.6,96.2c-3.2,15,5.2,25.7,20.2,25.7h72.2l20.4-36.3h-66.3l16.1-75.1h389l20.4-36.3h-420.2ZM2018.8,1080.1h44.3l31.7-147.7h-44.3l-31.7,147.7h0ZM1921.4,1080.1h44.3l23.9-111.4h39.5l7.8-36.3h-116.9l-20.4,36.3h45.8l-23.9,111.4h0ZM1843.5,1080.1c15,0,28.1-10.8,31.3-25.7l8.1-38c3.2-15-5.2-25.7-20.2-25.7h-44.7l4.7-21.9h59.9l20.4-36.3h-91.2c-15,0-28,10.8-31.3,25.7l-8.1,38c-3.2,15,5.2,25.7,20.2,25.7h44.7l-4.7,21.9h-64.1l-20.4,36.3h95.4ZM1692.2,1080.1h44.3l31.7-147.7h-44.3l-31.7,147.7h0ZM1674.1,1080.1l18.9-88.2h-49.2l-16.4,29.1h21.5l-4.9,22.8h-36.7l16.1-75.1h64.1l20.4-36.3h-95.4c-15,0-28.1,10.8-31.3,25.7l-20.6,96.2c-3.2,15,5.2,25.7,20.2,25.7h93.1ZM1463,1043.8l16.1-75.1h38.8l-16.1,75.1h-38.8ZM1468.4,932.4c-15,0-28.1,10.8-31.3,25.7l-20.6,96.2c-3.2,15,5.2,25.7,20.2,25.7h76c15,0,28.1-10.8,31.3-25.7l20.6-96.2c3.2-15-5.2-25.7-20.2-25.7h-76Z"/>
    <path class="cls-18" d="M2270.7,985.3h240.2l-20.4,36.3h-227.6l7.8-36.3ZM2259.4,1038.3h203.8l-20.4,36.3h-191.1l7.8-36.3Z"/>
    <path class="cls-9" d="M1309,1074.1h77.4l13.7-24.4h-53.7l10.5-48.8h-32.1l-15.7,73.2h0ZM2273.5,1001l-3.2,14.7h216.7l8.3-14.7h-221.9ZM2264.2,1044.2l-5.2,24.4h180.3l13.7-24.4h-188.8ZM2175.5,1074.1l13.7-24.4h-63.4l10.5-48.8h-32.1l-11.7,54.6c-2.3,10.9,3,18.5,14.4,18.5h68.7,0ZM2026.2,1074.1h32.1l15.7-73.2h-32.1l-15.7,73.2h0ZM1928.7,1074.1h32.1l15.7-73.2h-32.1l-15.7,73.2ZM1777.8,1001c-.6,9,4.8,15,14.9,15h52.1l-7.3,33.8h-65.5l-13.7,24.4h85.2c12.4,0,22.9-9,25.5-21l8.1-38c1.3-5.9.3-10.9-2.7-14.2h-96.6ZM1699.6,1074.1h32.1l15.7-73.2h-32.1l-15.7,73.2ZM1669.3,1074.1l15.7-73.2h-39.4l-7.9,14.1h18.7l-7.4,34.7h-48.9l10.5-48.8h-32.1l-11.7,54.6c-2.3,10.9,3,18.5,14.4,18.5h88.2,0ZM1434,1001l-11.7,54.6c-2.3,10.9,3,18.5,14.4,18.5h76c12.4,0,22.9-9,25.4-21l11.2-52.2h-32.1l-10.5,48.8h-51l10.5-48.8h-32.1Z"/>
  </g>
</svg>