<svg width="101" height="34" viewBox="0 0 101 34" fill="none" xmlns="http://www.w3.org/2000/svg">
<g clip-path="url(#clip0_0_19)">
<path d="M13.5228 19L13.5008 9.76L8.96882 17.372H7.36282L2.85282 9.958V19H-0.491184V3.6H2.45682L8.22082 13.17L13.8968 3.6H16.8228L16.8668 19H13.5228ZM28.4185 19.264C26.8199 19.264 25.3752 18.9193 24.0845 18.23C22.8085 17.5407 21.8039 16.5947 21.0705 15.392C20.3519 14.1747 19.9925 12.8107 19.9925 11.3C19.9925 9.78933 20.3519 8.43267 21.0705 7.23C21.8039 6.01267 22.8085 5.05933 24.0845 4.37C25.3752 3.68067 26.8199 3.336 28.4185 3.336C30.0172 3.336 31.4545 3.68067 32.7305 4.37C34.0065 5.05933 35.0112 6.01267 35.7445 7.23C36.4779 8.43267 36.8445 9.78933 36.8445 11.3C36.8445 12.8107 36.4779 14.1747 35.7445 15.392C35.0112 16.5947 34.0065 17.5407 32.7305 18.23C31.4545 18.9193 30.0172 19.264 28.4185 19.264ZM28.4185 16.228C29.3279 16.228 30.1492 16.0227 30.8825 15.612C31.6159 15.1867 32.1879 14.6 32.5985 13.852C33.0239 13.104 33.2365 12.2533 33.2365 11.3C33.2365 10.3467 33.0239 9.496 32.5985 8.748C32.1879 8 31.6159 7.42067 30.8825 7.01C30.1492 6.58467 29.3279 6.372 28.4185 6.372C27.5092 6.372 26.6879 6.58467 25.9545 7.01C25.2212 7.42067 24.6419 8 24.2165 8.748C23.8059 9.496 23.6005 10.3467 23.6005 11.3C23.6005 12.2533 23.8059 13.104 24.2165 13.852C24.6419 14.6 25.2212 15.1867 25.9545 15.612C26.6879 16.0227 27.5092 16.228 28.4185 16.228ZM54.2534 3.6L47.5874 19H44.0674L37.4234 3.6H41.2734L45.9594 14.6L50.7114 3.6H54.2534ZM67.9032 16.14V19H55.9792V3.6H67.6172V6.46H59.5212V9.804H66.6712V12.576H59.5212V16.14H67.9032ZM80.991 19L78.021 14.71H77.845H74.743V19H71.179V3.6H77.845C79.209 3.6 80.3896 3.82733 81.387 4.282C82.399 4.73667 83.1763 5.382 83.719 6.218C84.2616 7.054 84.533 8.044 84.533 9.188C84.533 10.332 84.2543 11.322 83.697 12.158C83.1543 12.9793 82.377 13.61 81.365 14.05L84.819 19H80.991ZM80.925 9.188C80.925 8.32267 80.6463 7.66267 80.089 7.208C79.5316 6.73867 78.7176 6.504 77.647 6.504H74.743V11.872H77.647C78.7176 11.872 79.5316 11.6373 80.089 11.168C80.6463 10.6987 80.925 10.0387 80.925 9.188ZM92.8567 19.264C91.6394 19.264 90.4587 19.1027 89.3147 18.78C88.1854 18.4427 87.276 18.01 86.5867 17.482L87.7967 14.798C88.4567 15.282 89.2414 15.6707 90.1507 15.964C91.06 16.2573 91.9694 16.404 92.8787 16.404C93.8907 16.404 94.6387 16.2573 95.1227 15.964C95.6067 15.656 95.8487 15.2527 95.8487 14.754C95.8487 14.3873 95.702 14.0867 95.4087 13.852C95.13 13.6027 94.7634 13.4047 94.3087 13.258C93.8687 13.1113 93.2674 12.95 92.5047 12.774C91.3314 12.4953 90.3707 12.2167 89.6227 11.938C88.8747 11.6593 88.2294 11.212 87.6867 10.596C87.1587 9.98 86.8947 9.15867 86.8947 8.132C86.8947 7.23733 87.1367 6.43067 87.6207 5.712C88.1047 4.97867 88.8307 4.39933 89.7987 3.974C90.7814 3.54867 91.9767 3.336 93.3847 3.336C94.3674 3.336 95.328 3.45333 96.2667 3.688C97.2054 3.92267 98.0267 4.26 98.7307 4.7L97.6307 7.406C96.208 6.59933 94.7854 6.196 93.3627 6.196C92.3654 6.196 91.6247 6.35733 91.1407 6.68C90.6714 7.00267 90.4367 7.428 90.4367 7.956C90.4367 8.484 90.708 8.88 91.2507 9.144C91.808 9.39333 92.6514 9.64267 93.7807 9.892C94.954 10.1707 95.9147 10.4493 96.6627 10.728C97.4107 11.0067 98.0487 11.4467 98.5767 12.048C99.1194 12.6493 99.3907 13.4633 99.3907 14.49C99.3907 15.37 99.1414 16.1767 98.6427 16.91C98.1587 17.6287 97.4254 18.2007 96.4427 18.626C95.46 19.0513 94.2647 19.264 92.8567 19.264Z" fill="#3F51B5"/>
<path d="M8.36191 31.07H8.64691L8.27191 32.165C8.07191 32.725 7.79191 33.125 7.43191 33.365C7.08191 33.595 6.70191 33.71 6.29191 33.71C5.77191 33.71 5.40191 33.555 5.18191 33.245C5.04191 33.065 4.97191 32.815 4.97191 32.495C4.97191 32.235 5.01691 31.94 5.10691 31.61C4.76691 32.35 4.38691 32.885 3.96691 33.215C3.55691 33.545 3.10191 33.71 2.60191 33.71C2.05191 33.71 1.63191 33.55 1.34191 33.23C1.06191 32.9 0.921913 32.445 0.921913 31.865C0.921913 30.975 1.15691 30.035 1.62691 29.045C2.10691 28.045 2.71191 27.21 3.44191 26.54C4.17191 25.87 4.88691 25.535 5.58691 25.535C5.85691 25.535 6.07191 25.615 6.23191 25.775C6.40191 25.935 6.50191 26.175 6.53191 26.495L6.74191 25.76C7.54191 25.75 8.26691 25.675 8.91691 25.535L6.95191 32.225C6.90191 32.395 6.87691 32.535 6.87691 32.645C6.87691 32.865 6.97191 32.975 7.16191 32.975C7.51191 32.975 7.82191 32.58 8.09191 31.79L8.36191 31.07ZM6.36691 27.08C6.37691 27.03 6.38191 26.955 6.38191 26.855C6.38191 26.605 6.33691 26.415 6.24691 26.285C6.16691 26.155 6.04191 26.09 5.87191 26.09C5.53191 26.09 5.14191 26.395 4.70191 27.005C4.27191 27.615 3.90191 28.38 3.59191 29.3C3.29191 30.22 3.14191 31.11 3.14191 31.97C3.14191 32.3 3.17191 32.54 3.23191 32.69C3.30191 32.83 3.41191 32.9 3.56191 32.9C3.78191 32.9 4.02191 32.75 4.28191 32.45C4.55191 32.14 4.81691 31.7 5.07691 31.13C5.34691 30.55 5.58191 29.865 5.78191 29.075L5.70691 29.435L6.36691 27.08ZM18.4362 31.07L18.0612 32.165C17.7012 33.195 17.0312 33.71 16.0512 33.71C15.4912 33.71 15.0912 33.545 14.8512 33.215C14.7212 33.025 14.6562 32.79 14.6562 32.51C14.6562 32.19 14.7362 31.795 14.8962 31.325L16.2462 27.275C16.3362 27.005 16.3812 26.79 16.3812 26.63C16.3812 26.4 16.2862 26.285 16.0962 26.285C15.7962 26.285 15.4312 26.59 15.0012 27.2C14.5812 27.81 14.1562 28.615 13.7262 29.615C13.2962 30.605 12.9212 31.65 12.6012 32.75L12.4062 33.5H10.2912L12.1062 27.02C12.1662 26.84 12.1962 26.68 12.1962 26.54C12.1962 26.36 12.1112 26.27 11.9412 26.27C11.7512 26.27 11.5812 26.36 11.4312 26.54C11.2912 26.71 11.1412 27.015 10.9812 27.455L10.6962 28.22H10.4112L10.8162 27.08C11.0062 26.53 11.2612 26.135 11.5812 25.895C11.9012 25.655 12.2912 25.535 12.7512 25.535C13.6112 25.535 14.0412 25.945 14.0412 26.765C14.0412 27.045 14.0012 27.335 13.9212 27.635L13.4562 29.45C13.8662 28.43 14.2562 27.64 14.6262 27.08C15.0062 26.51 15.3862 26.11 15.7662 25.88C16.1562 25.65 16.5862 25.535 17.0562 25.535C17.9562 25.535 18.4062 25.935 18.4062 26.735C18.4062 27.035 18.3412 27.39 18.2112 27.8L16.7412 32.225C16.6812 32.405 16.6512 32.55 16.6512 32.66C16.6512 32.87 16.7462 32.975 16.9362 32.975C17.0962 32.975 17.2512 32.89 17.4012 32.72C17.5612 32.55 17.7212 32.24 17.8812 31.79L18.1512 31.07H18.4362ZM27.5793 31.07H27.8643L27.5043 32.165C27.3243 32.735 27.0543 33.135 26.6943 33.365C26.3443 33.595 25.9543 33.71 25.5243 33.71C24.9043 33.71 24.5093 33.48 24.3393 33.02C24.2593 32.84 24.2193 32.63 24.2193 32.39C24.2193 32.1 24.2793 31.745 24.3993 31.325L24.4143 31.265C24.0343 32.115 23.6293 32.735 23.1993 33.125C22.7793 33.515 22.2743 33.71 21.6843 33.71C21.1543 33.71 20.7243 33.535 20.3943 33.185C20.0643 32.835 19.8993 32.31 19.8993 31.61C19.8993 30.8 20.1093 29.92 20.5293 28.97C20.9493 28.01 21.5393 27.2 22.2993 26.54C23.0593 25.87 23.9243 25.535 24.8943 25.535C25.3643 25.535 25.6693 25.705 25.8093 26.045L26.4843 23.495C26.5343 23.315 26.5593 23.175 26.5593 23.075C26.5593 22.875 26.4793 22.73 26.3193 22.64C26.1693 22.55 25.9093 22.505 25.5393 22.505L25.6293 22.19C26.3193 22.18 26.9443 22.125 27.5043 22.025C28.0743 21.925 28.6193 21.775 29.1393 21.575L26.1993 32.225C26.1493 32.365 26.1243 32.5 26.1243 32.63C26.1243 32.86 26.2193 32.975 26.4093 32.975C26.5593 32.975 26.7093 32.89 26.8593 32.72C27.0093 32.54 27.1643 32.23 27.3243 31.79L27.5793 31.07ZM25.7043 26.405C25.5943 26.055 25.3943 25.88 25.1043 25.88C24.6743 25.88 24.2243 26.19 23.7543 26.81C23.2943 27.42 22.9043 28.195 22.5843 29.135C22.2743 30.075 22.1193 31.005 22.1193 31.925C22.1193 32.275 22.1543 32.535 22.2243 32.705C22.3043 32.875 22.4293 32.96 22.5993 32.96C22.7993 32.96 23.0343 32.815 23.3043 32.525C23.5743 32.225 23.8543 31.795 24.1443 31.235C24.4443 30.675 24.7143 30.01 24.9543 29.24L25.7043 26.405Z" fill="#F1B701"/>
<path d="M37.6258 24.4C38.4318 24.4 39.1295 24.5343 39.7188 24.803C40.3168 25.0717 40.7761 25.453 41.0968 25.947C41.4175 26.441 41.5778 27.026 41.5778 27.702C41.5778 28.3693 41.4175 28.9543 41.0968 29.457C40.7761 29.951 40.3168 30.3323 39.7188 30.601C39.1295 30.861 38.4318 30.991 37.6258 30.991H35.7928V33.5H33.6868V24.4H37.6258ZM37.5088 29.275C38.1415 29.275 38.6225 29.1407 38.9518 28.872C39.2811 28.5947 39.4458 28.2047 39.4458 27.702C39.4458 27.1907 39.2811 26.8007 38.9518 26.532C38.6225 26.2547 38.1415 26.116 37.5088 26.116H35.7928V29.275H37.5088ZM49.2673 31.55H45.0423L44.2363 33.5H42.0783L46.1343 24.4H48.2143L52.2833 33.5H50.0733L49.2673 31.55ZM48.6043 29.951L47.1613 26.467L45.7183 29.951H48.6043ZM58.1055 33.656C57.1781 33.656 56.3375 33.4567 55.5835 33.058C54.8381 32.6507 54.2488 32.0917 53.8155 31.381C53.3908 30.6617 53.1785 29.8513 53.1785 28.95C53.1785 28.0487 53.3908 27.2427 53.8155 26.532C54.2488 25.8127 54.8381 25.2537 55.5835 24.855C56.3375 24.4477 57.1825 24.244 58.1185 24.244C58.9071 24.244 59.6178 24.3827 60.2505 24.66C60.8918 24.9373 61.4291 25.336 61.8625 25.856L60.5105 27.104C59.8951 26.3933 59.1325 26.038 58.2225 26.038C57.6591 26.038 57.1565 26.1637 56.7145 26.415C56.2725 26.6577 55.9258 27 55.6745 27.442C55.4318 27.884 55.3105 28.3867 55.3105 28.95C55.3105 29.5133 55.4318 30.016 55.6745 30.458C55.9258 30.9 56.2725 31.2467 56.7145 31.498C57.1565 31.7407 57.6591 31.862 58.2225 31.862C59.1325 31.862 59.8951 31.5023 60.5105 30.783L61.8625 32.031C61.4291 32.5597 60.8918 32.9627 60.2505 33.24C59.6091 33.5173 58.8941 33.656 58.1055 33.656ZM67.2497 29.925L66.0277 31.199V33.5H63.9347V24.4H66.0277V28.651L70.0577 24.4H72.3977L68.6277 28.456L72.6187 33.5H70.1617L67.2497 29.925ZM81.2537 31.81V33.5H74.2077V24.4H81.0847V26.09H76.3007V28.066H80.5257V29.704H76.3007V31.81H81.2537ZM89.3774 33.5L87.6224 30.965H87.5184H85.6854V33.5H83.5794V24.4H87.5184C88.3244 24.4 89.0221 24.5343 89.6114 24.803C90.2094 25.0717 90.6687 25.453 90.9894 25.947C91.3101 26.441 91.4704 27.026 91.4704 27.702C91.4704 28.378 91.3057 28.963 90.9764 29.457C90.6557 29.9423 90.1964 30.315 89.5984 30.575L91.6394 33.5H89.3774ZM89.3384 27.702C89.3384 27.1907 89.1737 26.8007 88.8444 26.532C88.5151 26.2547 88.0341 26.116 87.4014 26.116H85.6854V29.288H87.4014C88.0341 29.288 88.5151 29.1493 88.8444 28.872C89.1737 28.5947 89.3384 28.2047 89.3384 27.702ZM96.779 33.656C96.0596 33.656 95.362 33.5607 94.686 33.37C94.0186 33.1707 93.4813 32.915 93.074 32.603L93.789 31.017C94.179 31.303 94.6426 31.5327 95.18 31.706C95.7173 31.8793 96.2546 31.966 96.792 31.966C97.39 31.966 97.832 31.8793 98.118 31.706C98.404 31.524 98.547 31.2857 98.547 30.991C98.547 30.7743 98.4603 30.5967 98.287 30.458C98.1223 30.3107 97.9056 30.1937 97.637 30.107C97.377 30.0203 97.0216 29.925 96.571 29.821C95.8776 29.6563 95.31 29.4917 94.868 29.327C94.426 29.1623 94.0446 28.898 93.724 28.534C93.412 28.17 93.256 27.6847 93.256 27.078C93.256 26.5493 93.399 26.0727 93.685 25.648C93.971 25.2147 94.4 24.8723 94.972 24.621C95.5526 24.3697 96.259 24.244 97.091 24.244C97.6716 24.244 98.2393 24.3133 98.794 24.452C99.3486 24.5907 99.834 24.79 100.25 25.05L99.6 26.649C98.7593 26.1723 97.9186 25.934 97.078 25.934C96.4886 25.934 96.051 26.0293 95.765 26.22C95.4876 26.4107 95.349 26.662 95.349 26.974C95.349 27.286 95.5093 27.52 95.83 27.676C96.1593 27.8233 96.6576 27.9707 97.325 28.118C98.0183 28.2827 98.586 28.4473 99.028 28.612C99.47 28.7767 99.847 29.0367 100.159 29.392C100.48 29.7473 100.64 30.2283 100.64 30.835C100.64 31.355 100.493 31.8317 100.198 32.265C99.912 32.6897 99.4786 33.0277 98.898 33.279C98.3173 33.5303 97.611 33.656 96.779 33.656Z" fill="#F64747"/>
</g>
<defs>
<clipPath id="clip0_0_19">
<rect width="101" height="34" fill="white"/>
</clipPath>
</defs>
</svg>
